<svg xmlns="http://www.w3.org/2000/svg" width="962.274" height="352.709" viewBox="0 0 962.274 352.709">
  <g id="LOGO_-_HORIZONTAL" data-name="LOGO - HORIZONTAL" transform="translate(-48 -294.295)">
    <g id="TEXT" transform="translate(431.644 368.008)">
      <path id="Path_25" data-name="Path 25" d="M119.071-59.871c0-23.878-21.537-43.235-48.1-43.235H3.62V.005H42.108V-16.63l29.159-.013L80.588.005h38.482L103.393-28c9.611-7.91,15.678-19.24,15.678-31.872ZM42.1-68.845H70.966c5.312,0,9.611,3.87,9.611,8.641s-4.306,8.641-9.611,8.641H42.1Zm188.826-34.267H192.441L173.206-68.74,153.96-103.112H115.478L153.96-34.374V0h38.486V-34.374Zm89.51,51.464-.449-.3a59.024,59.024,0,0,0-16.728-7.586c-.062-.018-27.747-7.774-28.479-8.105a7.8,7.8,0,0,1-2.045-1.376,5.011,5.011,0,0,1-.86-1.026,3.806,3.806,0,0,1-.221-.357,3.35,3.35,0,0,1-.4-1.5c0-2.959,4.022-5.354,8.99-5.354s8.99,2.395,8.99,5.354v3.064h43.666a18.923,18.923,0,0,0,.257-3.064c0-6.78-3.629-13.043-9.74-18.183a42.043,42.043,0,0,0-3.691-2.751c-.141-.1-.29-.192-.436-.282-1.222-.8-2.507-1.555-3.863-2.279-.161-.087-.32-.179-.485-.264a62.7,62.7,0,0,0-9.968-4.1c-.1-.031-.215-.062-.326-.092-1.591-.491-3.231-.939-4.914-1.332-.5-.116-1.012-.221-1.517-.331-1.325-.29-2.677-.541-4.053-.767-.626-.1-1.253-.2-1.886-.29-1.356-.183-2.744-.331-4.15-.46-.6-.056-1.193-.123-1.8-.167-2-.134-4.024-.221-6.087-.221a88.436,88.436,0,0,0-10.661.639,80.577,80.577,0,0,0-9.937,1.835,71.033,71.033,0,0,0-8.99,2.905,49.524,49.524,0,0,0-14.292,8.512c-5.705,5.035-9.034,11.1-9.034,17.631a19.412,19.412,0,0,0,.259,3.064c1.081,6.621,5.606,12.639,12.484,17.423.092.062.21.136.425.277a58.947,58.947,0,0,0,16.735,7.591c.06.018,27.746,7.774,28.477,8.107a7.883,7.883,0,0,1,2.045,1.368,5,5,0,0,1,.865,1.039,2.923,2.923,0,0,1,.215.349,3.363,3.363,0,0,1,.4,1.5c0,2.959-4.022,5.356-8.99,5.356s-8.99-2.4-8.99-5.356v-3.064H227.595a19.412,19.412,0,0,0-.259,3.064c0,8.051,5.1,15.365,13.437,20.942l.424.277c1.229.8,2.512,1.56,3.87,2.284.159.085.313.172.472.257a62.761,62.761,0,0,0,9.973,4.1c.1.031.2.056.3.085,1.6.5,3.249.941,4.932,1.339.5.118,1.006.221,1.51.331q2,.434,4.06.769c.621.1,1.247.2,1.879.288,1.37.19,2.764.338,4.176.467.6.054,1.186.123,1.794.165,2,.136,4.029.228,6.087.228,29.226,0,52.914-14.113,52.914-31.523.005-7.837-4.8-14.98-12.719-20.487Zm58.5-17.092V0h38.481V-68.74h38.488v-34.372H340.461V-68.74Zm161.2-34.372V-68.74H501.661v-34.372H463.179V0h38.482V-34.374h38.481V0H578.63V-103.112Z" transform="translate(0 127)" fill="#fff"/>
      <path id="Path_24" data-name="Path 24" d="M15.376,0V-1.86H22.2a26.318,26.318,0,0,0,9.641-1.7,22.756,22.756,0,0,0,7.6-4.8,21.629,21.629,0,0,0,4.991-7.316,23.663,23.663,0,0,0,1.767-9.238,23.663,23.663,0,0,0-1.767-9.238,21.629,21.629,0,0,0-4.991-7.316,22.756,22.756,0,0,0-7.6-4.805A26.318,26.318,0,0,0,22.2-47.988h-6.82v-1.86h6.882a27.962,27.962,0,0,1,10.354,1.86A24.728,24.728,0,0,1,40.8-42.78a23.667,23.667,0,0,1,5.394,7.874,25.283,25.283,0,0,1,1.922,9.982A25.509,25.509,0,0,1,46.19-14.911,23.586,23.586,0,0,1,40.8-7.006a24.327,24.327,0,0,1-8.184,5.177A28.383,28.383,0,0,1,22.258,0ZM11.284,0V-49.848h1.86V0ZM3.1,0V-49.848H4.96V0ZM7.192,0V-49.848h1.86V0Zm8.184-4.092v-1.86H22.2A21.4,21.4,0,0,0,32.55-8.37,17.838,17.838,0,0,0,39.556-15.1,18.973,18.973,0,0,0,42.1-24.924a18.928,18.928,0,0,0-2.542-9.858,17.9,17.9,0,0,0-7.006-6.7A21.4,21.4,0,0,0,22.2-43.9h-6.82v-1.86h6.882a23.012,23.012,0,0,1,11.284,2.7,20,20,0,0,1,7.688,7.378,20.6,20.6,0,0,1,2.79,10.757,20.769,20.769,0,0,1-2.79,10.788,19.7,19.7,0,0,1-7.688,7.378A23.227,23.227,0,0,1,22.258-4.092Zm0-4.092v-1.86H22.2a17.457,17.457,0,0,0,8.246-1.86,13.618,13.618,0,0,0,5.518-5.239,15.079,15.079,0,0,0,1.984-7.781,15.036,15.036,0,0,0-1.984-7.812,13.681,13.681,0,0,0-5.518-5.208A17.457,17.457,0,0,0,22.2-39.8h-6.82v-1.86h6.882a19.04,19.04,0,0,1,9.176,2.139,15.76,15.76,0,0,1,6.2,5.89,16.71,16.71,0,0,1,2.232,8.711,16.876,16.876,0,0,1-2.232,8.742,15.477,15.477,0,0,1-6.2,5.89,19.268,19.268,0,0,1-9.176,2.108ZM79.859,0V-49.848h1.86V0ZM71.675,0V-49.848h1.86V0Zm4.092,0V-49.848h1.86V0Zm8.184-47.988v-1.86h24.738v1.86Zm0,4.092v-1.86h24.738v1.86Zm0,4.092v-1.86h24.738v1.86Zm0,11.718v-1.86h21.2v1.86Zm0,4.092v-1.86h21.2v1.86Zm0,4.092v-1.86h21.2v1.86Zm0,11.718v-1.86h24.738v1.86Zm0,4.092v-1.86h24.738v1.86Zm0,4.092V-1.86h24.738V0Zm65.475-7.254a13.959,13.959,0,0,1-7.254-1.705,5.767,5.767,0,0,1-3.1-4.557l1.8-.5a4.056,4.056,0,0,0,2.387,3.5,12.117,12.117,0,0,0,6.169,1.4,12.527,12.527,0,0,0,6.355-1.426,4.191,4.191,0,0,0,2.449-3.658,3.91,3.91,0,0,0-2.046-3.41A21.225,21.225,0,0,0,150.6-19.9l-3.844-1.116q-7.688-2.232-11.594-5.642a11.781,11.781,0,0,1-3.906-9.362,12.672,12.672,0,0,1,2.387-7.595,16.31,16.31,0,0,1,6.51-5.239,21.832,21.832,0,0,1,9.331-1.922,22.857,22.857,0,0,1,8.525,1.519,16.632,16.632,0,0,1,6.324,4.309,13.069,13.069,0,0,1,3.193,6.51l-1.8.5a11.274,11.274,0,0,0-2.79-5.766,14.806,14.806,0,0,0-5.7-3.844,21.037,21.037,0,0,0-7.75-1.364,19.808,19.808,0,0,0-8.4,1.7,14.7,14.7,0,0,0-5.828,4.619,11.02,11.02,0,0,0-2.139,6.7,10.223,10.223,0,0,0,3.565,8.153q3.565,3.069,10.571,4.991L151.1-21.7a21.364,21.364,0,0,1,6.634,2.852,5.272,5.272,0,0,1,2.356,4.526,5.921,5.921,0,0,1-2.914,5.115A13.712,13.712,0,0,1,149.427-7.254Zm0,4.092a17.484,17.484,0,0,1-9.765-2.573,9.743,9.743,0,0,1-4.619-6.727l1.86-.5a7.961,7.961,0,0,0,3.875,5.766,15.741,15.741,0,0,0,8.649,2.17A17.94,17.94,0,0,0,156.185-6.2a10.476,10.476,0,0,0,4.526-3.286,7.746,7.746,0,0,0,1.612-4.836,7.154,7.154,0,0,0-2.852-5.983A22.547,22.547,0,0,0,151.6-23.87l-3.782-1.054a26.412,26.412,0,0,1-9.238-4.216,8.174,8.174,0,0,1-3.224-6.758,9,9,0,0,1,1.829-5.58,12.282,12.282,0,0,1,5.053-3.813,18.093,18.093,0,0,1,7.254-1.395,18.936,18.936,0,0,1,6.789,1.147,12.625,12.625,0,0,1,4.929,3.255,9.23,9.23,0,0,1,2.356,4.9l-1.86.5a7.766,7.766,0,0,0-3.813-5.766,15.247,15.247,0,0,0-8.4-2.17,16.505,16.505,0,0,0-6.324,1.147,10.464,10.464,0,0,0-4.371,3.162,7.277,7.277,0,0,0-1.581,4.619,6.528,6.528,0,0,0,2.821,5.58,26.855,26.855,0,0,0,8.215,3.6l3.72,1.054a24.622,24.622,0,0,1,8.99,4.247,8.691,8.691,0,0,1,3.224,7.1,9.479,9.479,0,0,1-1.86,5.8,12.317,12.317,0,0,1-5.177,3.937A19.413,19.413,0,0,1,149.427-3.162Zm0,4.092a23.7,23.7,0,0,1-8.711-1.519,16.72,16.72,0,0,1-6.386-4.278,13.352,13.352,0,0,1-3.255-6.541l1.8-.5a11.676,11.676,0,0,0,2.821,5.8,14.632,14.632,0,0,0,5.735,3.813,22.078,22.078,0,0,0,8,1.364,21.625,21.625,0,0,0,8.9-1.7,14.231,14.231,0,0,0,5.952-4.712,11.724,11.724,0,0,0,2.139-6.975,10.588,10.588,0,0,0-3.658-8.432,27.194,27.194,0,0,0-10.292-5.084l-3.658-1.054a27.063,27.063,0,0,1-6.944-2.852,4.733,4.733,0,0,1-2.418-4.154,5.558,5.558,0,0,1,2.852-4.867,13.083,13.083,0,0,1,7.192-1.829,12.72,12.72,0,0,1,6.944,1.736,6.234,6.234,0,0,1,3.1,4.526l-1.8.5a4.354,4.354,0,0,0-2.387-3.534,11.228,11.228,0,0,0-5.859-1.364,11.956,11.956,0,0,0-5.8,1.3,3.863,3.863,0,0,0-2.387,3.41,3.5,3.5,0,0,0,2.2,3.1,31.03,31.03,0,0,0,5.8,2.232l3.534,1.054q7.5,2.232,11.47,5.8a12.313,12.313,0,0,1,3.968,9.641,13.428,13.428,0,0,1-2.387,7.843,15.761,15.761,0,0,1-6.634,5.363A23.62,23.62,0,0,1,149.427.93ZM199.96,0V-49.848h1.86V0Zm-8.184,0V-49.848h1.86V0Zm4.092,0V-49.848h1.86V0Zm55.493-25.42v-1.86h24.366v1.86Zm0,4.092v-1.86h24.366v1.86Zm0,4.092V-19.1h24.366v1.86ZM251.238.93a26.777,26.777,0,0,1-10.571-2.015,24.493,24.493,0,0,1-8.153-5.549,25,25,0,0,1-5.27-8.215,27.033,27.033,0,0,1-1.86-10.075A27.033,27.033,0,0,1,227.244-35a25,25,0,0,1,5.27-8.215,24.493,24.493,0,0,1,8.153-5.549,26.777,26.777,0,0,1,10.571-2.015,26.051,26.051,0,0,1,13.144,3.255,24.089,24.089,0,0,1,8.928,8.649L271.7-37.82a22.44,22.44,0,0,0-8.215-8.06,23.974,23.974,0,0,0-12.245-3.038,25.1,25.1,0,0,0-9.858,1.86,22.532,22.532,0,0,0-7.564,5.146,22.944,22.944,0,0,0-4.867,7.657,25.447,25.447,0,0,0-1.705,9.331,25.447,25.447,0,0,0,1.705,9.331,22.944,22.944,0,0,0,4.867,7.657A22.532,22.532,0,0,0,241.38-2.79a25.1,25.1,0,0,0,9.858,1.86,25.045,25.045,0,0,0,9.672-1.8,22.371,22.371,0,0,0,7.5-5.022,23.247,23.247,0,0,0,4.9-7.378h2.046a24.882,24.882,0,0,1-5.239,8.339A24.465,24.465,0,0,1,261.9-1.116,26.81,26.81,0,0,1,251.238.93Zm0-8.184a18.063,18.063,0,0,1-9.486-2.387,16.053,16.053,0,0,1-6.076-6.417,18.835,18.835,0,0,1-2.108-8.866,18.782,18.782,0,0,1,2.108-8.9,16.107,16.107,0,0,1,6.076-6.386,18.063,18.063,0,0,1,9.486-2.387,17.94,17.94,0,0,1,9.207,2.263,15.985,15.985,0,0,1,5.983,5.983l-1.612,1.054a13.987,13.987,0,0,0-5.332-5.363,16.147,16.147,0,0,0-8.246-2.015,16.267,16.267,0,0,0-8.525,2.139,14.244,14.244,0,0,0-5.425,5.7,16.828,16.828,0,0,0-1.86,7.905,16.828,16.828,0,0,0,1.86,7.9,14.244,14.244,0,0,0,5.425,5.7,16.267,16.267,0,0,0,8.525,2.139,16.309,16.309,0,0,0,7.5-1.643,14.1,14.1,0,0,0,5.146-4.309h2.356a15.9,15.9,0,0,1-6.014,5.735A18.191,18.191,0,0,1,251.238-7.254Zm0,4.092a22.629,22.629,0,0,1-8.959-1.7A20.841,20.841,0,0,1,235.4-9.548a20.358,20.358,0,0,1-4.4-6.913,23.308,23.308,0,0,1-1.519-8.463,23.308,23.308,0,0,1,1.519-8.463,20.691,20.691,0,0,1,4.4-6.944,20.237,20.237,0,0,1,6.882-4.681,23,23,0,0,1,8.959-1.674,22.079,22.079,0,0,1,11.191,2.759,20.078,20.078,0,0,1,7.471,7.285l-1.612,1.054a18.678,18.678,0,0,0-6.82-6.665,20.073,20.073,0,0,0-10.23-2.511A20.338,20.338,0,0,0,240.667-42.1a18.262,18.262,0,0,0-6.913,7.161,20.8,20.8,0,0,0-2.418,10.013,20.847,20.847,0,0,0,2.418,9.982,18.2,18.2,0,0,0,6.913,7.192,20.338,20.338,0,0,0,10.571,2.666A20.085,20.085,0,0,0,261.9-7.843a18.34,18.34,0,0,0,6.882-7.285h2.108a20.494,20.494,0,0,1-7.564,8.649A21.63,21.63,0,0,1,251.238-3.162ZM340.583,0V-49.848h1.86V0ZM332.4,0V-49.848h1.86V0Zm4.092,0V-49.848h1.86V0ZM307.475,0V-49.848h1.86V0Zm-8.184,0V-49.848h1.86V0Zm4.092,0V-49.848h1.86V0Zm26.784-17.174L311.567-43.9v-3.286l18.6,26.722Zm0,7.192L311.567-36.7V-39.99l18.6,26.722Zm0,7.192-18.6-26.722V-32.8l18.6,26.722Z" transform="translate(1.22 203.232)" fill="#fff"/>
    </g>
    <path id="IMAGE" d="M501.9,727.46,325.55,817.179c26.557,4.091,55.862,7.257,87.077,9.331l80.567-84.056L425.41,827.32c9.568.553,19.336.976,29.212,1.328a50.695,50.695,0,0,1,94.563,0c9.883-.352,19.638-.775,29.212-1.328l-67.784-84.867,80.567,84.1c31.208-2.11,60.5-5.275,87.077-9.331L501.9,727.5Zm0,80.9a38.687,38.687,0,1,0,38.694,38.689A38.685,38.685,0,0,0,501.9,808.365ZM325.772,821.37,354.648,863.8a16.9,16.9,0,0,1,3.639-1.543,16.684,16.684,0,0,1,3.747-.66c19.042-.66,42.512,30.684,54.118,73.3a189.032,189.032,0,0,1,5.29,27.009l80.46,118.264,80.575-118.378a188.4,188.4,0,0,1,5.29-26.894c11.606-42.613,35.17-73.928,54.226-73.3a16.741,16.741,0,0,1,3.754.66,16.191,16.191,0,0,1,3.416,1.435l28.875-42.347c-25.322,6.087-54.456,10.831-86.08,14l-81.343,209.662,67.469-208.313c-8.541.718-17.283,1.292-26.126,1.758a50.817,50.817,0,1,1-100.076,0c-8.85-.466-17.578-1.048-26.126-1.758l67.468,208.313-81.371-209.64c-31.631-3.165-60.779-7.9-86.08-14Z" transform="translate(-277.55 -433.165)" fill="#fff"/>
  </g>
</svg>
