<svg xmlns="http://www.w3.org/2000/svg" width="729.103" height="729.103" viewBox="0 0 729.103 729.103">
  <g id="LOGO_-_ONLY" data-name="LOGO - ONLY" transform="translate(0)">
    <path id="IMAGE" d="M690.094,727.46,325.55,912.922c54.9,8.457,115.476,15,180,19.288L672.1,758.454,531.977,933.887c19.778,1.142,39.971,2.018,60.387,2.745a104.794,104.794,0,0,1,195.477,0c20.431-.727,40.594-1.6,60.387-2.745L708.106,758.454,874.651,932.3c64.511-4.362,125.061-10.905,180-19.288L690.094,727.549Zm0,167.242a79.971,79.971,0,1,0,79.986,79.976A79.968,79.968,0,0,0,690.094,894.7ZM326.01,921.587,385.7,1009.3a34.936,34.936,0,0,1,7.522-3.19,34.482,34.482,0,0,1,7.745-1.365c39.362-1.365,87.879,63.428,111.871,151.515a390.77,390.77,0,0,1,10.935,55.832l166.323,244.469,166.56-244.706a389.441,389.441,0,0,1,10.935-55.594c23.991-88.087,72.7-152.821,112.093-151.515a34.593,34.593,0,0,1,7.76,1.365,33.445,33.445,0,0,1,7.062,2.967l59.689-87.538c-52.345,12.582-112.568,22.389-177.94,28.932l-168.147,433.4L847.574,953.264c-17.656,1.484-35.727,2.671-54.007,3.635a105.046,105.046,0,1,1-206.872,0c-18.294-.964-36.336-2.166-54.006-3.635l139.468,430.614L503.95,950.519c-65.386-6.543-125.639-16.321-177.94-28.932Z" transform="translate(-325.55 -727.46)" fill="#fff"/>
  </g>
</svg>
