<svg id="LOGO_-_VERTICAL" data-name="LOGO - VERTICAL" xmlns="http://www.w3.org/2000/svg" width="667.138" height="658.86" viewBox="0 0 667.138 658.86">
  <g id="TEXT" transform="translate(0 449.352)">
    <path id="Path_25" data-name="Path 25" d="M137.568-52.895c0-27.7-24.988-50.163-55.812-50.163H3.62V16.575H48.274v-19.3L82.105-2.74,92.92,16.575h44.648l-18.19-32.491c11.151-9.177,18.19-22.323,18.19-36.979Zm-89.3-10.412H81.757c6.163,0,11.151,4.49,11.151,10.025s-5,10.025-11.151,10.025H48.268Zm219.08-39.757H222.694L200.377-63.185l-22.329-39.879H133.4l44.648,79.752V16.569H222.7V-23.312ZM371.2-43.354c-.107-.071-.25-.164-.521-.342a68.482,68.482,0,0,0-19.408-8.8c-.071-.021-32.193-9.02-33.041-9.4a9.045,9.045,0,0,1-2.373-1.6,5.815,5.815,0,0,1-1-1.191,4.417,4.417,0,0,1-.256-.414,3.887,3.887,0,0,1-.462-1.739c0-3.434,4.666-6.212,10.431-6.212S335-70.274,335-66.841v3.555h50.663a21.957,21.957,0,0,0,.3-3.555c0-7.867-4.211-15.133-11.3-21.1a48.772,48.772,0,0,0-4.282-3.192c-.164-.116-.336-.223-.506-.328-1.417-.928-2.909-1.8-4.481-2.644-.187-.1-.372-.208-.563-.307a72.741,72.741,0,0,0-11.565-4.761c-.122-.036-.25-.071-.378-.107-1.846-.569-3.749-1.09-5.7-1.546-.575-.134-1.174-.256-1.76-.384-1.537-.336-3.106-.628-4.7-.89-.727-.122-1.453-.235-2.188-.336-1.573-.212-3.184-.384-4.815-.533-.7-.065-1.384-.143-2.087-.193-2.316-.155-4.668-.256-7.062-.256a102.608,102.608,0,0,0-12.369.741,93.486,93.486,0,0,0-11.529,2.129,82.411,82.411,0,0,0-10.431,3.37A57.458,57.458,0,0,0,273.661-87.3c-6.619,5.842-10.481,12.883-10.481,20.456a22.519,22.519,0,0,0,.3,3.555c1.254,7.682,6.5,14.664,14.484,20.215.107.071.244.157.493.321a68.392,68.392,0,0,0,19.417,8.807c.069.021,32.191,9.02,33.039,9.406a9.145,9.145,0,0,1,2.373,1.588,5.8,5.8,0,0,1,1,1.205,3.4,3.4,0,0,1,.25.405A3.9,3.9,0,0,1,335-19.6c0,3.434-4.666,6.214-10.431,6.214s-10.431-2.78-10.431-6.214v-3.555H263.48a22.519,22.519,0,0,0-.3,3.555c0,9.341,5.922,17.827,15.59,24.3l.491.321c1.426.926,2.915,1.81,4.49,2.65.185.1.363.2.548.3a72.818,72.818,0,0,0,11.571,4.761c.113.036.235.065.342.1,1.852.577,3.77,1.092,5.723,1.554.575.137,1.168.256,1.751.384q2.318.5,4.71.893c.72.12,1.447.227,2.18.334,1.59.221,3.207.393,4.845.542.693.063,1.376.143,2.081.191,2.323.157,4.675.265,7.062.265,33.909,0,61.391-16.374,61.391-36.574.006-9.093-5.573-17.38-14.757-23.77Zm67.878-19.83V16.569h44.646V-63.185h44.654v-39.879H394.43v39.879ZM626.1-103.064v39.879H581.458v-39.879H536.81V16.569h44.648V-23.312H626.1V16.569h44.654V-103.064Z" transform="translate(-3.62 103.414)" fill="#fff"/>
    <path id="Path_24" data-name="Path 24" d="M17.343,8.136V5.978h7.913A30.535,30.535,0,0,0,36.441,4a26.4,26.4,0,0,0,8.812-5.575,25.094,25.094,0,0,0,5.791-8.488,27.454,27.454,0,0,0,2.05-10.718A27.454,27.454,0,0,0,51.044-31.5a25.1,25.1,0,0,0-5.791-8.488,26.4,26.4,0,0,0-8.812-5.575,30.535,30.535,0,0,0-11.186-1.978H17.343V-49.7h7.985A32.442,32.442,0,0,1,37.34-47.541a28.69,28.69,0,0,1,9.5,6.042,27.459,27.459,0,0,1,6.258,9.136,29.333,29.333,0,0,1,2.23,11.581,29.6,29.6,0,0,1-2.23,11.617A27.365,27.365,0,0,1,46.836.007a28.225,28.225,0,0,1-9.5,6.006A32.931,32.931,0,0,1,25.328,8.136Zm-4.748,0V-49.7h2.158V8.136Zm-9.5,0V-49.7H5.258V8.136Zm4.748,0V-49.7h2.158V8.136Zm9.5-4.748V1.23h7.913A24.832,24.832,0,0,0,37.268-1.575,20.7,20.7,0,0,0,45.4-9.38a22.013,22.013,0,0,0,2.949-11.4A21.961,21.961,0,0,0,45.4-32.219a20.773,20.773,0,0,0-8.129-7.769,24.832,24.832,0,0,0-12.013-2.805H17.343v-2.158h7.985a26.7,26.7,0,0,1,13.092,3.129,23.2,23.2,0,0,1,8.92,8.56,23.906,23.906,0,0,1,3.237,12.48A24.1,24.1,0,0,1,47.339-8.265a22.861,22.861,0,0,1-8.92,8.56A26.949,26.949,0,0,1,25.328,3.388Zm0-4.748V-3.518h7.913a20.254,20.254,0,0,0,9.567-2.158,15.8,15.8,0,0,0,6.4-6.078,17.5,17.5,0,0,0,2.3-9.028,17.445,17.445,0,0,0-2.3-9.064,15.873,15.873,0,0,0-6.4-6.042,20.254,20.254,0,0,0-9.567-2.158H17.343V-40.2h7.985a22.091,22.091,0,0,1,10.646,2.482,18.285,18.285,0,0,1,7.193,6.834,19.387,19.387,0,0,1,2.59,10.107,19.579,19.579,0,0,1-2.59,10.143,17.957,17.957,0,0,1-7.193,6.834A22.355,22.355,0,0,1,25.328-1.36Zm74.815,9.5V-49.7h2.158V8.136Zm-9.5,0V-49.7h2.158V8.136Zm4.748,0V-49.7h2.158V8.136Zm9.5-55.677V-49.7h28.7v2.158Zm0,4.748v-2.158h28.7v2.158Zm0,4.748V-40.2h28.7v2.158Zm0,13.6v-2.158h24.6v2.158Zm0,4.748v-2.158h24.6V-19.7Zm0,4.748v-2.158h24.6v2.158Zm0,13.6V-3.518h28.7V-1.36Zm0,4.748V1.23h28.7V3.388Zm0,4.748V5.978h28.7V8.136ZM172.871-.281a16.2,16.2,0,0,1-8.416-1.978,6.691,6.691,0,0,1-3.6-5.287l2.086-.575q0,2.446,2.769,4.064a14.059,14.059,0,0,0,7.157,1.619,14.535,14.535,0,0,0,7.373-1.654q2.841-1.654,2.841-4.244a4.536,4.536,0,0,0-2.374-3.956,24.625,24.625,0,0,0-6.474-2.662l-4.46-1.295q-8.92-2.59-13.452-6.546t-4.532-10.862a14.7,14.7,0,0,1,2.769-8.812,18.924,18.924,0,0,1,7.553-6.078,25.33,25.33,0,0,1,10.826-2.23,26.52,26.52,0,0,1,9.891,1.762,19.3,19.3,0,0,1,7.337,5,15.163,15.163,0,0,1,3.7,7.553l-2.086.575a13.081,13.081,0,0,0-3.237-6.69,17.179,17.179,0,0,0-6.618-4.46,24.407,24.407,0,0,0-8.992-1.583,22.981,22.981,0,0,0-9.747,1.978,17.055,17.055,0,0,0-6.762,5.359,12.786,12.786,0,0,0-2.482,7.769,11.861,11.861,0,0,0,4.136,9.459q4.136,3.561,12.265,5.791l4.46,1.223a24.787,24.787,0,0,1,7.7,3.309,6.116,6.116,0,0,1,2.734,5.251,6.87,6.87,0,0,1-3.381,5.935A15.908,15.908,0,0,1,172.871-.281Zm0,4.748a20.285,20.285,0,0,1-11.33-2.985,11.3,11.3,0,0,1-5.359-7.8l2.158-.575a9.236,9.236,0,0,0,4.5,6.69,18.263,18.263,0,0,0,10.035,2.518A20.814,20.814,0,0,0,180.712.942a12.155,12.155,0,0,0,5.251-3.812,8.987,8.987,0,0,0,1.87-5.611,8.3,8.3,0,0,0-3.309-6.942,26.159,26.159,0,0,0-9.136-4.136L171-20.782a30.643,30.643,0,0,1-10.718-4.891,9.484,9.484,0,0,1-3.741-7.841,10.439,10.439,0,0,1,2.122-6.474,14.25,14.25,0,0,1,5.863-4.424,20.991,20.991,0,0,1,8.416-1.618A21.97,21.97,0,0,1,180.82-44.7a14.648,14.648,0,0,1,5.719,3.777,10.709,10.709,0,0,1,2.733,5.683l-2.158.575a9.011,9.011,0,0,0-4.424-6.69,17.69,17.69,0,0,0-9.747-2.518,19.149,19.149,0,0,0-7.337,1.331,12.141,12.141,0,0,0-5.071,3.669,8.443,8.443,0,0,0-1.834,5.359,7.574,7.574,0,0,0,3.273,6.474,31.158,31.158,0,0,0,9.531,4.172l4.316,1.223a28.567,28.567,0,0,1,10.43,4.927,10.084,10.084,0,0,1,3.741,8.236,11,11,0,0,1-2.158,6.726,14.291,14.291,0,0,1-6.006,4.568A22.523,22.523,0,0,1,172.871,4.467Zm0,4.748a27.5,27.5,0,0,1-10.107-1.762,19.4,19.4,0,0,1-7.409-4.963A15.491,15.491,0,0,1,151.579-5.1l2.086-.575a13.547,13.547,0,0,0,3.273,6.726,16.977,16.977,0,0,0,6.654,4.424,25.616,25.616,0,0,0,9.279,1.583,25.09,25.09,0,0,0,10.322-1.978A16.511,16.511,0,0,0,190.1-.388a13.6,13.6,0,0,0,2.482-8.093,12.284,12.284,0,0,0-4.244-9.783q-4.244-3.669-11.941-5.9l-4.244-1.223a31.4,31.4,0,0,1-8.057-3.309,5.491,5.491,0,0,1-2.805-4.82,6.448,6.448,0,0,1,3.309-5.647,15.179,15.179,0,0,1,8.344-2.122A14.758,14.758,0,0,1,181-39.269a7.232,7.232,0,0,1,3.6,5.251l-2.086.575a5.051,5.051,0,0,0-2.769-4.1,13.027,13.027,0,0,0-6.8-1.583,13.871,13.871,0,0,0-6.726,1.511q-2.769,1.511-2.769,3.956,0,2.23,2.554,3.6a36,36,0,0,0,6.726,2.59l4.1,1.223q8.7,2.59,13.308,6.726t4.6,11.186a15.579,15.579,0,0,1-2.769,9.1,18.286,18.286,0,0,1-7.7,6.222A27.4,27.4,0,0,1,172.871,9.215ZM231.5,8.136V-49.7h2.158V8.136Zm-9.5,0V-49.7h2.158V8.136Zm4.748,0V-49.7h2.158V8.136Zm64.385-29.493v-2.158h28.27v2.158Zm0,4.748v-2.158h28.27v2.158Zm0,4.748V-14.02h28.27v2.158Zm-.144,21.077A31.067,31.067,0,0,1,278.73,6.877,28.417,28.417,0,0,1,269.271.439a29,29,0,0,1-6.114-9.531A31.365,31.365,0,0,1,261-20.782a31.365,31.365,0,0,1,2.158-11.689A29,29,0,0,1,269.271-42a28.418,28.418,0,0,1,9.459-6.438,31.067,31.067,0,0,1,12.265-2.338A30.225,30.225,0,0,1,306.245-47,27.949,27.949,0,0,1,316.6-36.967l-1.87,1.223A26.036,26.036,0,0,0,305.2-45.1a27.815,27.815,0,0,0-14.207-3.525,29.117,29.117,0,0,0-11.437,2.158,26.141,26.141,0,0,0-8.776,5.97,26.619,26.619,0,0,0-5.647,8.884,29.525,29.525,0,0,0-1.978,10.826,29.525,29.525,0,0,0,1.978,10.826,26.619,26.619,0,0,0,5.647,8.884,26.141,26.141,0,0,0,8.776,5.97,29.116,29.116,0,0,0,11.437,2.158,29.058,29.058,0,0,0,11.222-2.086,25.955,25.955,0,0,0,8.7-5.827,26.971,26.971,0,0,0,5.683-8.56h2.374A28.868,28.868,0,0,1,312.9.259a28.385,28.385,0,0,1-9.531,6.582A31.105,31.105,0,0,1,290.995,9.215Zm0-9.5A20.957,20.957,0,0,1,279.989-3.05a18.625,18.625,0,0,1-7.049-7.445,21.854,21.854,0,0,1-2.446-10.287A21.792,21.792,0,0,1,272.939-31.1a18.688,18.688,0,0,1,7.049-7.409,20.957,20.957,0,0,1,11.006-2.769,20.814,20.814,0,0,1,10.682,2.626,18.546,18.546,0,0,1,6.942,6.942l-1.87,1.223a16.227,16.227,0,0,0-6.186-6.222,18.734,18.734,0,0,0-9.567-2.338,18.873,18.873,0,0,0-9.891,2.482,16.526,16.526,0,0,0-6.294,6.618,19.524,19.524,0,0,0-2.158,9.172,19.524,19.524,0,0,0,2.158,9.172A16.526,16.526,0,0,0,281.1-4.992a18.873,18.873,0,0,0,9.891,2.482,18.922,18.922,0,0,0,8.7-1.906,16.354,16.354,0,0,0,5.97-5H308.4a18.448,18.448,0,0,1-6.978,6.654A21.105,21.105,0,0,1,290.995-.281Zm0,4.748A26.254,26.254,0,0,1,280.6,2.489a24.181,24.181,0,0,1-7.985-5.431,23.62,23.62,0,0,1-5.107-8.021,27.043,27.043,0,0,1-1.762-9.819,27.043,27.043,0,0,1,1.762-9.819,24.006,24.006,0,0,1,5.107-8.057,23.48,23.48,0,0,1,7.985-5.431,26.68,26.68,0,0,1,10.394-1.942,25.617,25.617,0,0,1,12.984,3.2,23.3,23.3,0,0,1,8.668,8.452l-1.87,1.223a21.67,21.67,0,0,0-7.913-7.733A23.289,23.289,0,0,0,290.995-43.8a23.6,23.6,0,0,0-12.265,3.093,21.188,21.188,0,0,0-8.021,8.308A24.127,24.127,0,0,0,267.9-20.782,24.187,24.187,0,0,0,270.709-9.2,21.122,21.122,0,0,0,278.73-.856a23.6,23.6,0,0,0,12.265,3.093,23.3,23.3,0,0,0,12.373-3.2,21.279,21.279,0,0,0,7.985-8.452H313.8A23.777,23.777,0,0,1,305.022.619,25.1,25.1,0,0,1,290.995,4.467Zm103.66,3.669V-49.7h2.158V8.136Zm-9.5,0V-49.7h2.158V8.136Zm4.748,0V-49.7h2.158V8.136Zm-33.665,0V-49.7H358.4V8.136Zm-9.5,0V-49.7h2.158V8.136Zm4.748,0V-49.7h2.158V8.136ZM382.57-11.79l-21.58-31v-3.812l21.58,31Zm0,8.344-21.58-31v-3.812l21.58,31Zm0,8.344-21.58-31v-3.812l21.58,31Z" transform="translate(133.806 200.294)" fill="#fff"/>
  </g>
  <path id="IMAGE" d="M530.156,727.46,325.55,831.553c30.812,4.747,64.813,8.419,101.029,10.826l93.476-97.523L441.41,843.32c11.1.641,22.434,1.133,33.893,1.541a58.817,58.817,0,0,1,109.715,0c11.467-.408,22.784-.9,33.893-1.541l-78.645-98.464,93.476,97.573c36.208-2.448,70.192-6.121,101.029-10.826L530.156,727.51Zm0,93.867a44.885,44.885,0,1,0,44.894,44.888A44.883,44.883,0,0,0,530.156,821.327ZM325.808,836.417l33.5,49.232a19.613,19.613,0,0,1,4.222-1.791,19.356,19.356,0,0,1,4.347-.766c22.093-.766,49.324,35.6,62.789,85.04a219.317,219.317,0,0,1,6.137,31.336l93.351,137.212L623.64,999.335a218.574,218.574,0,0,1,6.137-31.2c13.465-49.44,40.8-85.773,62.914-85.04a19.413,19.413,0,0,1,4.355.766,18.771,18.771,0,0,1,3.964,1.665l33.5-49.132c-29.379,7.062-63.181,12.566-99.871,16.239l-94.375,243.254L618.544,854.2c-9.91.833-20.053,1.5-30.312,2.04a58.959,58.959,0,1,1-116.11,0c-10.268-.541-20.394-1.216-30.312-2.04l78.278,241.688L425.68,852.655c-36.7-3.672-70.517-9.16-99.871-16.239Z" transform="translate(-196.766 -727.46)" fill="#fff"/>
</svg>
