<svg xmlns="http://www.w3.org/2000/svg" width="775.49" height="345.112" viewBox="0 0 775.49 345.112">
  <g id="WHITE-LOGO" transform="translate(347 -295)">
    <g id="TEXT" transform="translate(-329.78 -310.665)">
      <text id="Rysth" transform="translate(553.27 792.665)" fill="#fff" font-size="119" font-family="Gotham-Black, Gotham" font-weight="800"><tspan x="-204.383" y="0">RYSTH</tspan></text>
      <text id="craft" transform="translate(466.27 863.04)" fill="#fff" font-size="55" font-family="Vonique64, 'Vonique \36 4'" letter-spacing="0.25em"><tspan x="-116.633" y="0">CRAFT</tspan></text>
    </g>
    <g id="DESIGN" transform="translate(-347 295)">
      <g id="Group_14" data-name="Group 14" transform="translate(0 0)">
        <path id="Path_32" data-name="Path 32" d="M532.071,256l-60.879-60.879-80.484,80.484H341.931v86.1h84.606v-.5l.168.168Z" transform="translate(-341.931 -159.811)" fill="#fff"/>
        <path id="Path_33" data-name="Path 33" d="M360.648,249.644l60.879-60.879,115.8,115.8H586.1v86.1H501.5v-.5l-.168.168Z" transform="translate(-256.719 -188.765)" fill="#fff"/>
      </g>
      <g id="Group_15" data-name="Group 15" transform="translate(87.557 227.642)">
        <path id="Path_34" data-name="Path 34" d="M368.541,283.22l40.512,40.512,53.558-53.558L422,229.762Z" transform="translate(-308.341 -229.762)" fill="#fff"/>
        <path id="Path_35" data-name="Path 35" d="M475.268,306.72l-40.511,40.512L357.7,270.174l46.164-40.412Z" transform="translate(-357.699 -229.762)" fill="#fff"/>
      </g>
    </g>
  </g>
</svg>
